<?xml version="1.0" encoding="UTF-8"?>
<svg version="1.1" xmlns="http://www.w3.org/2000/svg" width="2048" height="492">
<path d="M0 0 C0.99 0 1.98 0 3 0 C4.43530273 1.56616211 4.43530273 1.56616211 5.93359375 3.77734375 C6.49385254 4.59227295 7.05411133 5.40720215 7.63134766 6.24682617 C8.22737793 7.13474854 8.8234082 8.0226709 9.4375 8.9375 C10.70401993 10.78673725 11.97095367 12.63569116 13.23828125 14.484375 C13.8720166 15.41572266 14.50575195 16.34707031 15.15869141 17.30664062 C17.77252466 21.13000425 20.44506859 24.91031955 23.125 28.6875 C24.10958475 30.08058095 25.09396031 31.47380977 26.078125 32.8671875 C27.05203089 34.24482874 28.02598908 35.62243301 29 37 C38.30411277 50.15902965 47.55618192 63.3537978 56.79101562 76.56152344 C64.34359109 87.36211906 71.91516353 98.14872061 79.5234375 108.91015625 C81.03791538 111.0536633 82.5504729 113.19851358 84.0625 115.34375 C86.57166273 118.90368701 89.08433492 122.46112341 91.59912109 126.01708984 C92.9083995 127.87034171 94.21409787 129.72607028 95.51953125 131.58203125 C102.71852404 141.78060436 110.31008492 151.67126495 117.96484375 161.53076172 C126.88455413 173.02066695 135.4653454 184.54726539 143 197 C143.62044189 198.01852051 143.62044189 198.01852051 144.25341797 199.05761719 C149.68956567 208.06731109 153.96400026 216.88000087 157 227 C157.23332031 227.75023437 157.46664063 228.50046875 157.70703125 229.2734375 C163.40377588 250.66696768 158.79090486 273.85442061 148.09765625 292.84375 C143.73204536 299.4124904 138.26683498 306.6350284 131 310 C130.62939453 309.45400146 130.25878906 308.90800293 129.87695312 308.34545898 C113.5151032 284.25578918 96.94121904 260.31158603 79.85473633 236.72924805 C76.19936642 231.67849891 72.58619187 226.60005941 69 221.5 C64.29208617 214.80566735 59.52352514 208.15758556 54.72143555 201.53051758 C51.80848343 197.50949617 48.91341319 193.47720279 46.04394531 189.42504883 C41.7087961 183.30822548 37.22285097 177.33345253 32.6328125 171.40625 C11.03392582 143.50291194 11.03392582 143.50291194 3.15625 127.9765625 C2.15318368 125.84899966 2.15318368 125.84899966 0 125 C-0.36351562 126.26263672 -0.36351562 126.26263672 -0.734375 127.55078125 C-2.15086618 131.41115692 -4.05656377 134.73557755 -6.25 138.1875 C-6.68473633 138.87602051 -7.11947266 139.56454102 -7.56738281 140.27392578 C-15.33215143 152.37019076 -24.17761129 163.71593137 -33.0625 175 C-38.44983834 181.8437007 -43.44773337 188.88344024 -48.31665039 196.10327148 C-52.89746588 202.89243255 -57.70188596 209.48910401 -62.57568359 216.06933594 C-71.10355514 227.62888483 -79.3875063 239.35968562 -87.60546875 251.140625 C-90.67755845 255.5439247 -93.77261106 259.93052038 -96.875 264.3125 C-101.67783862 271.10280441 -106.43774968 277.92247484 -111.1875 284.75 C-111.87142822 285.73081543 -112.55535645 286.71163086 -113.26000977 287.72216797 C-116.1778238 291.9119041 -119.08561459 296.10475581 -121.9140625 300.35546875 C-122.32889893 300.97389648 -122.74373535 301.59232422 -123.17114258 302.22949219 C-124.22236695 303.80261854 -125.26212429 305.3833916 -126.30078125 306.96484375 C-126.86152344 307.63644531 -127.42226563 308.30804688 -128 309 C-131.47945711 309 -132.65280749 308.11363504 -135.19921875 305.8515625 C-150.5360747 290.08221387 -157.26069699 269.58236634 -157.2487793 247.83496094 C-156.75199032 214.39641664 -135.07394238 186.89977743 -115.25512695 161.72070312 C-104.86325828 148.51343228 -95.09886732 134.84119844 -85.45898438 121.07958984 C-83.51515074 118.30891131 -81.56079858 115.54573429 -79.60644531 112.7824707 C-72.96684462 103.39314744 -66.37216089 93.97255778 -59.78222656 84.54833984 C-56.27493444 79.53339256 -52.76463287 74.52055142 -49.25488281 69.50732422 C-46.3121436 65.30376353 -43.37015906 61.09967859 -40.4296875 56.89453125 C-33.95830569 47.64146614 -27.47211706 38.39928009 -20.953125 29.1796875 C-18.89671369 26.27125571 -16.84527565 23.35939154 -14.796875 20.4453125 C-14.26594238 19.69080811 -13.73500977 18.93630371 -13.18798828 18.15893555 C-12.18540481 16.73398912 -11.18369848 15.3084249 -10.18310547 13.88208008 C-9.2649526 12.57817437 -8.34236425 11.27737893 -7.41503906 9.97998047 C-6.4069687 8.56944723 -5.41009 7.15088713 -4.42089844 5.72705078 C-3.89786133 4.99341309 -3.37482422 4.25977539 -2.8359375 3.50390625 C-2.36462402 2.83302979 -1.89331055 2.16215332 -1.40771484 1.47094727 C-0.710896 0.74282837 -0.710896 0.74282837 0 0 Z " fill="#000000" transform="translate(885,0)"/>
<path d="M0 0 C15.25402565 -0.4640775 30.77111823 3.82273311 42.328125 14.16015625 C44.3125 16.5625 44.3125 16.5625 46.078125 19.09765625 C46.67109375 19.93167969 47.2640625 20.76570313 47.875 21.625 C49.35037035 24.19896602 49.93097631 26.23902312 50.328125 29.16015625 C51.2871875 28.17015625 51.2871875 28.17015625 52.265625 27.16015625 C53.28174031 26.15536256 54.30328997 25.15605476 55.328125 24.16015625 C55.94816406 23.55558594 56.56820313 22.95101562 57.20703125 22.328125 C72.57086496 7.982888 91.98087186 -0.44679865 113.07421875 -0.0234375 C128.63729725 0.85467137 143.63997522 5.71159112 154.42578125 17.44140625 C162.25175143 27.67664538 163.93101107 39.31531777 163.82983398 51.87329102 C163.83793846 53.82696846 163.83793846 53.82696846 163.84620667 55.82011414 C163.86000969 59.34860062 163.84910585 62.87659132 163.83249545 66.40504956 C163.81852208 70.11337382 163.82511788 73.82167287 163.82862854 77.53001404 C163.83131801 83.74412937 163.81795416 89.95805011 163.79467773 96.17211914 C163.76797018 103.35183008 163.76635889 110.53121815 163.7780661 117.71096188 C163.7888417 124.63883624 163.78266537 131.56659406 163.76851082 138.49445915 C163.76275968 141.43577779 163.76282652 144.3770109 163.76757622 147.31833076 C163.77323224 151.4162573 163.75403609 155.51370023 163.73217773 159.61157227 C163.73893021 161.43886368 163.73893021 161.43886368 163.74581909 163.30307007 C163.73591446 164.41727829 163.72600983 165.53148651 163.71580505 166.67945862 C163.71216021 168.13084402 163.71216021 168.13084402 163.70844173 169.61155033 C163.26111801 172.60918833 162.41110633 173.9860635 160.328125 176.16015625 C157.95288086 176.76513672 157.95288086 176.76513672 155.10546875 176.90234375 C153.49841064 176.98500488 153.49841064 176.98500488 151.85888672 177.06933594 C145.5340895 177.23202606 139.21755495 177.30370123 132.890625 177.28515625 C130.91739258 177.29095703 130.91739258 177.29095703 128.90429688 177.296875 C106.30993299 177.27451541 106.30993299 177.27451541 102.02954102 174.86767578 C99.69861544 172.52838844 99.40160625 170.42842672 99.21345711 167.18101311 C99.21827536 166.48237711 99.22309361 165.78374111 99.22805786 165.06393433 C99.23101868 164.25671432 99.23397949 163.44949432 99.23703003 162.61781311 C99.24533844 161.74088303 99.25364685 160.86395294 99.26220703 159.96044922 C99.26921631 158.56452293 99.26921631 158.56452293 99.27636719 157.14039612 C99.28686543 155.11988027 99.2995267 153.09937476 99.31409073 151.07888412 C99.33612594 147.87494477 99.35019827 144.67106474 99.36178589 141.46707153 C99.39535957 132.35719688 99.43682531 123.24741976 99.49951172 114.13769531 C99.53729815 108.56340916 99.5602266 102.98922457 99.57381821 97.41482925 C99.58184187 95.29625752 99.59540709 93.17769891 99.61474991 91.05920029 C99.64142253 88.08475191 99.64913976 85.11078421 99.65283203 82.13623047 C99.67136734 80.83905342 99.67136734 80.83905342 99.6902771 79.51567078 C99.66633157 72.14886313 98.62825862 64.99108994 93.890625 59.16015625 C87.7142948 54.33960585 82.00250536 54.4156954 74.328125 55.16015625 C71.29482984 56.06671458 68.91864288 57.35986516 66.328125 59.16015625 C65.27625 59.86140625 64.224375 60.56265625 63.140625 61.28515625 C57.91162739 66.12912184 55.34250893 71.69242693 54.91964722 78.81951904 C54.78068866 83.62914519 54.83287455 88.43415751 54.92173576 93.24439621 C54.9813408 96.48094604 55.00981156 99.71650441 55.03065491 102.95352173 C55.08074148 109.81450701 55.17198545 116.67465019 55.265625 123.53515625 C55.36964898 131.508754 55.4568014 139.482111 55.51294136 147.45619583 C55.54261165 150.64521182 55.59715794 153.83317112 55.65306091 157.02182007 C55.67078156 158.97075435 55.68744594 160.91969862 55.70288086 162.86865234 C55.72511719 163.75493317 55.74735352 164.64121399 55.77026367 165.55435181 C55.77829681 169.34796019 55.77129933 171.48699689 53.65040588 174.70852661 C50.81447071 176.48123532 49.1320249 176.66683609 45.796875 176.67773438 C44.68892578 176.69034302 43.58097656 176.70295166 42.43945312 176.71594238 C40.6518457 176.703797 40.6518457 176.703797 38.828125 176.69140625 C36.98637695 176.69714661 36.98637695 176.69714661 35.10742188 176.70300293 C32.51171041 176.70572467 29.91597164 176.69834536 27.3203125 176.68164062 C23.34312901 176.660237 19.36775218 176.68143588 15.390625 176.70703125 C12.86978767 176.70438802 10.34895147 176.69926316 7.828125 176.69140625 C6.63638672 176.69950317 5.44464844 176.7076001 4.21679688 176.71594238 C2.55487305 176.69702942 2.55487305 176.69702942 0.859375 176.67773438 C-0.60145508 176.67296082 -0.60145508 176.67296082 -2.09179688 176.66809082 C-5.54581788 175.98810495 -6.6718082 175.05283165 -8.671875 172.16015625 C-9.04172141 169.53743914 -9.16992791 167.34308173 -9.11010742 164.72729492 C-9.10857414 163.61140739 -9.10857414 163.61140739 -9.10700989 162.47297668 C-9.09911605 160.00753256 -9.06305298 157.54331006 -9.02734375 155.078125 C-9.0173239 153.34533163 -9.00924438 151.61252607 -9.00300598 149.87971497 C-8.98204198 145.29995054 -8.93804058 140.72070528 -8.88824463 136.14117432 C-8.80427736 128.01623202 -8.76055618 119.89085881 -8.71484375 111.765625 C-8.70733408 110.46271326 -8.70733408 110.46271326 -8.6996727 109.13348007 C-8.64525716 98.94747965 -8.61379079 88.76751777 -8.97265625 78.5859375 C-9.0074836 77.27800484 -9.0074836 77.27800484 -9.04301453 75.94364929 C-9.35226566 69.17679066 -10.67227429 63.50968709 -15.171875 58.22265625 C-19.72999875 54.46220416 -24.40713553 54.70789263 -30.10546875 54.74609375 C-38.12831715 55.6775526 -45.59098902 59.89373021 -50.671875 66.16015625 C-52.74243075 69.26598987 -52.92259765 69.93076278 -52.93016052 73.44897461 C-52.93698853 74.32383514 -52.94381653 75.19869568 -52.95085144 76.10006714 C-52.94829849 77.05704498 -52.94574554 78.01402283 -52.94311523 79 C-52.95095535 80.51498581 -52.95095535 80.51498581 -52.95895386 82.06057739 C-52.96920332 84.2557113 -52.97497591 86.45086957 -52.97683525 88.64602661 C-52.98048903 92.11691724 -52.9971877 95.58751961 -53.01759338 99.05834961 C-53.07310776 108.92719171 -53.10373536 118.7960763 -53.12817383 128.66503906 C-53.14401735 134.69860008 -53.17420142 140.73195623 -53.21293831 146.76541138 C-53.22461567 149.06834748 -53.23051889 151.37132018 -53.23061943 153.67428589 C-53.23081072 156.88984675 -53.24902122 160.10483952 -53.27124023 163.3203125 C-53.26666306 164.27729034 -53.26208588 165.23426819 -53.25737 166.22024536 C-53.26701782 167.0951059 -53.27666565 167.96996643 -53.28660583 168.87133789 C-53.28962283 170.01174278 -53.28962283 170.01174278 -53.29270077 171.17518616 C-53.77719142 173.71148577 -54.65140369 174.59623193 -56.671875 176.16015625 C-72.39514823 179.36349807 -100.457664 180.73623844 -115.671875 175.16015625 C-117.30840001 171.88710622 -116.7826533 168.27119337 -116.75366211 164.67602539 C-116.75059555 163.79561081 -116.74752899 162.91519623 -116.74436951 162.00810242 C-116.73719489 160.08528308 -116.72779489 158.1624711 -116.71647453 156.23967171 C-116.6990143 153.15924212 -116.68875567 150.0788652 -116.68055725 146.99839783 C-116.65621928 138.23431386 -116.62162425 129.47029754 -116.57592773 120.70629883 C-116.41507826 88.73712648 -116.83646005 57.02290643 -120.3046875 25.20703125 C-121.01485595 17.69549832 -121.01485595 17.69549832 -120.671875 14.16015625 C-118.04310764 11.23183168 -115.35326418 10.65614355 -111.546875 10.09765625 C-110.48339844 9.9378125 -109.41992188 9.77796875 -108.32421875 9.61328125 C-105.73007065 9.29144042 -103.15221682 9.00794099 -100.55078125 8.76953125 C-91.49144018 7.91987073 -83.03199399 6.48146627 -74.30444336 3.83666992 C-69.25368619 2.35765783 -63.92759038 1.09056233 -58.671875 2.16015625 C-56.54906937 5.3443647 -56.39167963 6.3655288 -56.2578125 10.046875 C-56.21914062 10.98466797 -56.18046875 11.92246094 -56.140625 12.88867188 C-56.1096875 13.86513672 -56.07875 14.84160156 -56.046875 15.84765625 C-56.00820312 16.83572266 -55.96953125 17.82378906 -55.9296875 18.84179688 C-55.83541633 21.28106332 -55.74981282 23.7203222 -55.671875 26.16015625 C-51.51227095 23.43775148 -47.37889767 20.7000405 -43.37890625 17.74609375 C-30.01922207 7.89984519 -16.8258133 1.00856483 0 0 Z " fill="#010101" transform="translate(1518.671875,215.83984375)"/>
<path d="M0 0 C2.02148958 -0.00067594 4.04297908 -0.00164836 6.06446838 -0.00289917 C10.27581567 -0.00436286 14.48714156 -0.00226497 18.69848633 0.00244141 C24.04803645 0.00813415 29.39753633 0.004854 34.74708462 -0.00113106 C38.91425442 -0.00477596 43.08141266 -0.00358014 47.24858284 -0.00100327 C49.21899484 -0.00034463 51.18940795 -0.0011244 53.15981865 -0.00348282 C86.05296275 -0.03422596 86.05296275 -0.03422596 97.94140625 2.8828125 C98.68463135 3.0576416 99.42785645 3.2324707 100.19360352 3.41259766 C123.47454024 9.12315799 144.10668097 22.41015864 156.69140625 43.1328125 C171.32353952 68.90145313 173.01248112 99.35923614 165.94140625 127.8203125 C159.02879801 151.81112933 145.52946793 170.68794662 123.53515625 182.8828125 C103.57355122 192.76479519 82.3752031 192.82227505 60.62890625 191.6328125 C54.29686575 191.29384734 47.96984352 190.98224378 41.62890625 190.8828125 C40.35917969 190.85703125 39.08945313 190.83125 37.78125 190.8046875 C34.75814568 190.89944123 34.75814568 190.89944123 32.77734375 192.3203125 C28.56462013 199.35162098 32.2271143 213.44584684 32.97485352 221.29614258 C33.79165172 230.26180782 33.89352742 239.13842049 33.69140625 248.1328125 C31.38555054 249.28574036 30.09752226 249.25330072 27.53393555 249.24365234 C26.67250443 249.24241364 25.8110733 249.24117493 24.92353821 249.23989868 C23.51505867 249.22943008 23.51505867 249.22943008 22.078125 249.21875 C21.10034592 249.21475189 20.12256683 249.21075378 19.11515808 249.20663452 C8.92347443 249.15291928 -1.26701244 249.01712556 -11.45678711 248.81542969 C-13.51693272 248.77637479 -15.57716477 248.74168087 -17.63745117 248.7109375 C-20.66740461 248.66556264 -23.69688476 248.60770168 -26.7265625 248.546875 C-27.64825729 248.53532379 -28.56995209 248.52377258 -29.51957703 248.51187134 C-30.7941552 248.4820668 -30.7941552 248.4820668 -32.09448242 248.45166016 C-33.2107325 248.43167465 -33.2107325 248.43167465 -34.34953308 248.4112854 C-36.30859375 248.1328125 -36.30859375 248.1328125 -39.30859375 246.1328125 C-39.67215061 243.59731007 -39.67215061 243.59731007 -39.65589905 240.32417297 C-39.65713272 239.08515228 -39.65836639 237.84613159 -39.65963745 236.56956482 C-39.64582561 235.18740586 -39.6317479 233.80524953 -39.61743164 232.4230957 C-39.61331141 230.97198801 -39.61054203 229.52087594 -39.60902405 228.06976318 C-39.6029095 224.93058887 -39.58733846 221.79164955 -39.5646534 218.65255165 C-39.52868027 213.63655538 -39.51483659 208.62064266 -39.50401306 203.60453796 C-39.47981062 193.78873084 -39.43335743 183.97308909 -39.3844223 174.15737915 C-39.31136178 159.29117197 -39.25366876 144.42494042 -39.21875 129.55859375 C-39.21661216 128.71146096 -39.21447432 127.86432817 -39.21227169 126.9915247 C-39.14601624 99.32572922 -39.60639779 71.75498988 -41.30859375 44.1328125 C-41.38236866 42.92132915 -41.38236866 42.92132915 -41.45763397 41.6853714 C-41.91691959 34.16782022 -42.40018051 26.65280441 -42.94140625 19.140625 C-43.26987514 14.11300785 -43.54643872 9.16892125 -43.30859375 4.1328125 C-35.40992764 -3.76585361 -10.62736709 -0.0127049 0 0 Z M29.69140625 58.1328125 C28.14323339 61.22915821 28.30041629 64.53840315 28.12890625 67.9453125 C28.08717285 68.77208496 28.04543945 69.59885742 28.00244141 70.45068359 C27.07473713 91.3410692 27.64703032 112.25918178 28.69140625 133.1328125 C42.03513341 139.10109774 65.65654831 138.17075311 79.328125 133.16796875 C88.17788362 129.23915214 93.25479269 123.132063 96.96484375 114.30859375 C101.13784139 101.81203629 99.93333139 86.0727531 94.69140625 74.1328125 C90.27649854 65.61834762 83.30676394 60.86233196 74.40234375 57.859375 C67.97040656 56.13554169 61.81134917 55.93965781 55.19140625 55.9453125 C54.22050049 55.94611816 53.24959473 55.94692383 52.24926758 55.94775391 C44.7021311 56.01158012 37.02793709 56.1876112 29.69140625 58.1328125 Z " fill="#000000" transform="translate(58.30859375,143.8671875)"/>
<path d="M0 0 C19.39291151 15.61039317 31.24590058 36.09015431 34 61 C34.62474071 75.10872765 35.04776672 89.35510898 31 103 C30.6596875 104.16015625 30.319375 105.3203125 29.96875 106.515625 C23.26050343 127.09362461 9.75621508 145.0105493 -9.78515625 155 C-27.70442194 163.61047068 -48.75629577 166.33277784 -67.96875 160.48828125 C-76.49203832 157.46410209 -84.76209313 153.71842524 -93 150 C-93.1101678 159.22961352 -92.97833127 168.40617672 -92.5 177.625 C-92.10536892 185.64489898 -91.83605284 193.65801042 -91.75 201.6875 C-91.7180957 203.16694092 -91.7180957 203.16694092 -91.68554688 204.67626953 C-91.68103516 205.59134277 -91.67652344 206.50641602 -91.671875 207.44921875 C-91.6625293 208.25705811 -91.65318359 209.06489746 -91.64355469 209.8972168 C-92.10211574 212.60241295 -92.84804068 213.32589317 -95 215 C-97.28778076 215.38095093 -97.28778076 215.38095093 -100.00292969 215.38818359 C-101.02118835 215.39764008 -102.03944702 215.40709656 -103.08856201 215.4168396 C-104.1885553 215.41076691 -105.28854858 215.40469421 -106.421875 215.3984375 C-108.12189667 215.40274277 -108.12189667 215.40274277 -109.85626221 215.40713501 C-112.25704446 215.40917821 -114.65784326 215.40363056 -117.05859375 215.39111328 C-120.72173708 215.37512337 -124.38376701 215.39092345 -128.046875 215.41015625 C-130.38021076 215.4081727 -132.71354583 215.40432672 -135.046875 215.3984375 C-136.13877136 215.40451019 -137.23066772 215.41058289 -138.35565186 215.4168396 C-144.31906928 215.36213523 -148.77038752 214.97215402 -154 212 C-155.42247493 209.15505013 -155.13125659 206.75213372 -155.13803101 203.56997681 C-155.14085229 202.901987 -155.14367357 202.2339972 -155.14658034 201.54576528 C-155.15494692 199.29563531 -155.1562665 197.04555443 -155.15771484 194.79541016 C-155.16238259 193.18539287 -155.16752609 191.57537691 -155.17311096 189.96536255 C-155.18441235 186.48739368 -155.19283765 183.00943348 -155.19923019 179.53145218 C-155.20993298 174.00395807 -155.23019379 168.47652475 -155.25234985 162.94906616 C-155.31416547 147.22600155 -155.36795191 131.50293755 -155.40136719 115.77978516 C-155.41988752 107.10335714 -155.44905341 98.4270284 -155.4893719 89.75067365 C-155.51018951 85.17116643 -155.52586211 80.59178307 -155.52817917 76.0122261 C-155.5438077 40.87573699 -155.5438077 40.87573699 -160.60637474 6.16277504 C-161.17164492 3.05689651 -161.13686161 0.14781703 -161 -3 C-156.08053242 -5.77508427 -151.48074982 -6.96972703 -146 -8 C-144.70570068 -8.24991699 -144.70570068 -8.24991699 -143.38525391 -8.50488281 C-136.73952083 -9.75222478 -130.07005106 -10.80535581 -123.375 -11.75 C-122.488125 -11.87761719 -121.60125 -12.00523437 -120.6875 -12.13671875 C-105.05704449 -14.22547331 -105.05704449 -14.22547331 -100.0625 -11.25 C-97.04834217 -6.50041796 -96.07433517 -1.47648903 -95 4 C-94.43192627 3.66266846 -93.86385254 3.32533691 -93.27856445 2.9777832 C-62.99127444 -14.9166078 -31.05104082 -22.2515602 0 0 Z M-84.875 47.6875 C-92.93755172 57.72765875 -93.68808288 69.62725038 -93 82 C-91.49837231 91.40426153 -86.45422014 99.86177088 -78.97265625 105.78125 C-70.84186404 110.80463053 -61.39603639 110.95051933 -52.25 109.25 C-45.11805841 107.43254564 -40.00866335 103.05251706 -36 97 C-30.43173834 86.11095497 -29.29324947 72.66939982 -33 61 C-36.74321301 51.79371935 -42.38916066 44.87189881 -51.296875 40.3125 C-63.40010657 36.02274704 -75.98447761 38.4600736 -84.875 47.6875 Z " fill="#000000" transform="translate(1876,232)"/>
<path d="M0 0 C1.72061613 1.56623378 3.41659995 3.16027686 5.078125 4.7890625 C7.09001611 6.85132903 7.09001611 6.85132903 10.13671875 7.64453125 C10.39066406 6.8246875 10.64460937 6.00484375 10.90625 5.16015625 C11.42251953 3.54367188 11.42251953 3.54367188 11.94921875 1.89453125 C12.28566406 0.8271875 12.62210938 -0.24015625 12.96875 -1.33984375 C14.93242826 -6.40994279 14.93242826 -6.40994279 17.13671875 -8.35546875 C20.1640625 -8.51953125 20.1640625 -8.51953125 24.07421875 -7.98046875 C25.15207642 -7.83242798 25.15207642 -7.83242798 26.25170898 -7.68139648 C33.78740083 -6.56152937 41.24634193 -4.98530986 48.69921875 -3.41796875 C50.50024048 -3.03922607 50.50024048 -3.03922607 52.33764648 -2.65283203 C58.50210275 -1.30671519 64.30433276 0.22938996 70.13671875 2.64453125 C70.28506781 8.55826427 69.71800504 14.00649709 68.76171875 19.83203125 C64.12160857 50.47603488 64.58767459 81.24071992 66.27709961 112.08227539 C66.91903599 123.87743336 67.3555442 135.64364945 67.38671875 147.45703125 C67.39574219 148.75560059 67.40476562 150.05416992 67.4140625 151.39208984 C67.41019531 152.57496582 67.40632812 153.7578418 67.40234375 154.9765625 C67.40008789 156.00499268 67.39783203 157.03342285 67.39550781 158.09301758 C67.13671875 160.64453125 67.13671875 160.64453125 65.13671875 163.64453125 C53.55660517 167.50456911 38.74964108 165.77010699 26.63671875 165.70703125 C24.92708467 165.70199814 23.21744912 165.69743849 21.5078125 165.69335938 C17.3840774 165.68251577 13.26041503 165.66535476 9.13671875 165.64453125 C8.64313491 164.38381505 8.15482101 163.12103488 7.66870117 161.85742188 C7.39620041 161.1544397 7.12369965 160.45145752 6.84294128 159.72717285 C5.8750349 156.87282878 5.61968033 154.14465513 5.44921875 151.14453125 C5.38347656 150.10296875 5.31773437 149.06140625 5.25 147.98828125 C5.19392578 146.828125 5.19392578 146.828125 5.13671875 145.64453125 C1.1592238 148.0519624 -2.01736962 150.72154575 -5.36328125 153.95703125 C-16.11366848 163.82784134 -30.30880876 169.04077482 -44.86328125 168.86328125 C-67.43673476 167.21730026 -85.4199755 157.77573021 -100.33984375 140.83203125 C-117.85348363 118.684198 -123.07512174 92.01945536 -120.17578125 64.26953125 C-117.93055004 45.91466158 -111.29215734 28.56700618 -98.86328125 14.64453125 C-98.22132813 13.90976563 -97.579375 13.175 -96.91796875 12.41796875 C-85.17354004 -0.19320747 -69.79219794 -7.58235097 -52.86328125 -10.35546875 C-51.86361328 -10.52175781 -51.86361328 -10.52175781 -50.84375 -10.69140625 C-33.24435382 -13.10764988 -14.18257795 -11.66725035 0 0 Z M-54.86328125 55.64453125 C-60.41901742 62.72094318 -61.07851835 73.01966845 -60.74609375 81.70703125 C-59.3501081 91.7353363 -54.06550452 99.57458418 -46.3359375 105.94921875 C-38.23170984 111.50567184 -29.51806657 112.7969904 -19.86328125 111.64453125 C-10.2861585 109.41612883 -2.76604667 105.08786839 2.51171875 96.70703125 C7.89188499 87.4645669 8.64170665 76.88108985 6.484375 66.5078125 C3.37572096 56.94169686 -3.14552841 49.86076722 -11.86328125 44.95703125 C-27.56283699 38.08847561 -43.89915387 43.43494434 -54.86328125 55.64453125 Z " fill="#010101" transform="translate(363.86328125,227.35546875)"/>
<path d="M0 0 C17.95472433 15.89902305 26.07561526 37.21817265 27.87060547 60.70581055 C28.11853446 68.07075997 26.79963225 75.79756777 21.68701172 81.3034668 C14.85688191 84.64879646 7.23645727 85.13835527 -0.21923828 85.83862305 C-1.45677856 85.96281113 -2.69431885 86.08699921 -3.96936035 86.21495056 C-7.2535366 86.54225675 -10.5384329 86.86037257 -13.82391357 87.17425537 C-17.07765497 87.48785817 -20.32997499 87.81561035 -23.58251953 88.14135742 C-35.72412658 89.34697176 -47.87221889 90.47719223 -60.03173828 91.48706055 C-61.01428589 91.57117691 -61.9968335 91.65529327 -63.00915527 91.74195862 C-69.45617217 92.25915193 -75.84645537 92.39582199 -82.31298828 92.3034668 C-79.42125793 101.28305052 -74.63101908 105.97271467 -66.31298828 110.3034668 C-50.90410038 116.72162664 -34.558869 115.09390966 -19.25048828 109.1159668 C-13.44739844 106.59220692 -8.33026773 103.24790211 -3.12548828 99.68237305 C-0.31298828 98.3034668 -0.31298828 98.3034668 1.82763672 98.7253418 C4.34286908 100.86011884 5.74826328 103.15428812 7.43701172 105.9909668 C7.77555176 106.55823486 8.1140918 107.12550293 8.46289062 107.70996094 C11.09211467 112.16607787 13.60109317 116.69008534 16.06201172 121.2409668 C16.39555664 121.85480225 16.72910156 122.4686377 17.07275391 123.10107422 C21.81251069 132.04109338 21.81251069 132.04109338 21.54248047 136.90893555 C18.33501973 145.88689643 7.71917935 151.41065568 -0.421875 155.43530273 C-9.2584653 159.49196619 -18.68178106 162.05416993 -28.31298828 163.3034668 C-29.15732422 163.41432617 -30.00166016 163.52518555 -30.87158203 163.6394043 C-58.19924428 166.64422897 -87.39868864 162.66784699 -109.68798828 145.4284668 C-111.25104851 144.07783589 -112.79278355 142.70215857 -114.31298828 141.3034668 C-115.15345703 140.55452148 -115.99392578 139.80557617 -116.85986328 139.03393555 C-132.67234638 124.20374307 -141.44123376 102.47220486 -142.42089844 80.93066406 C-143.0943365 52.78588064 -137.56499587 26.81294687 -118.31298828 5.3034668 C-86.70615198 -27.80622056 -34.35300113 -29.43904132 0 0 Z M-79.99267578 34.2644043 C-84.60935311 41.39430242 -86.58019633 48.81611983 -85.31298828 57.3034668 C-83.55388657 59.47046916 -83.55388657 59.47046916 -81.40478516 59.54711914 C-74.1513193 59.4471228 -67.01619153 58.76176283 -59.81298828 57.9284668 C-58.65412109 57.80213867 -57.49525391 57.67581055 -56.30126953 57.5456543 C-45.00117608 56.64565488 -45.00117608 56.64565488 -34.31298828 53.3034668 C-34.74467605 43.97901106 -37.63041468 36.9860404 -44.31298828 30.3034668 C-50.43855868 25.34280188 -56.23745917 24.57170403 -64.00439453 24.8894043 C-71.02392683 25.76788177 -75.66288102 28.70428534 -79.99267578 34.2644043 Z " fill="#010101" transform="translate(1353.31298828125,232.696533203125)"/>
<path d="M0 0 C6.70911723 -0.22190544 12.76614834 0.32462704 19.3125 1.75 C29.70320023 3.88625229 40.15110785 5.33656099 50.6652832 6.69238281 C52.46292114 6.92779785 52.46292114 6.92779785 54.296875 7.16796875 C55.91094238 7.37329224 55.91094238 7.37329224 57.55761719 7.58276367 C60 8 60 8 61 9 C61.33199318 16.21596946 61.10454297 23.43093865 60.5 30.625 C59.99993637 36.84007658 59.88765493 43.01850242 59.875 49.25 C59.87048828 50.18021973 59.86597656 51.11043945 59.86132812 52.06884766 C59.86326172 52.93815918 59.86519531 53.8074707 59.8671875 54.703125 C59.86887939 55.87343262 59.86887939 55.87343262 59.87060547 57.06738281 C59.88052489 59.08310292 59.88052489 59.08310292 61 61 C62.29736084 60.99476318 63.59472168 60.98952637 64.93139648 60.98413086 C69.72647415 60.96608531 74.5215488 60.95456963 79.31665039 60.94506836 C81.39543156 60.94002712 83.47420916 60.93319426 85.55297852 60.92456055 C88.53402586 60.91248578 91.51502649 60.90676976 94.49609375 60.90234375 C95.89921059 60.89460182 95.89921059 60.89460182 97.33067322 60.88670349 C98.19149002 60.88662796 99.05230682 60.88655243 99.93920898 60.88647461 C100.70087875 60.884254 101.46254852 60.88203339 102.24729919 60.87974548 C104 61 104 61 105 62 C105.07966765 63.64724371 105.08866071 65.29796559 105.06933594 66.94702148 C105.05892273 68.00159042 105.04850952 69.05615936 105.03778076 70.14268494 C105.02015686 71.29055984 105.00253296 72.43843475 104.984375 73.62109375 C104.95963104 75.37644188 104.95963104 75.37644188 104.93438721 77.16725159 C104.89680992 79.64808621 104.85625424 82.1288772 104.81298828 84.60961914 C104.75033028 88.4174282 104.70887098 92.22510657 104.66796875 96.03320312 C104.62891696 98.43752168 104.58859479 100.84182001 104.546875 103.24609375 C104.53734802 104.39194443 104.52782104 105.5377951 104.51800537 106.71836853 C104.49498352 107.77608963 104.47196167 108.83381073 104.44824219 109.92358398 C104.43412292 110.85766586 104.42000366 111.79174774 104.40545654 112.75413513 C104.27165588 113.49527054 104.13785522 114.23640594 104 115 C100.955498 117.029668 100.39723672 117.24856301 96.98754883 117.22705078 C95.7866436 117.22682419 95.7866436 117.22682419 94.56147766 117.22659302 C93.70201035 117.21627045 92.84254303 117.20594788 91.95703125 117.1953125 C91.0734343 117.1924826 90.18983734 117.18965271 89.27946472 117.18673706 C86.45700546 117.17554097 83.63486338 117.15043751 80.8125 117.125 C78.89909312 117.11496946 76.98568127 117.10584374 75.07226562 117.09765625 C70.38138818 117.07560351 65.69074787 117.04107762 61 117 C60.20314203 120.01062424 59.87147215 122.63254058 59.8671875 125.75390625 C59.86501221 126.68187012 59.86283691 127.60983398 59.8605957 128.56591797 C59.86534912 129.55479004 59.87010254 130.54366211 59.875 131.5625 C59.87910889 132.58230957 59.88321777 133.60211914 59.88745117 134.65283203 C59.93500822 141.23002311 60.04224454 147.80299952 60.3125 154.375 C60.34609619 155.48597046 60.34609619 155.48597046 60.38037109 156.61938477 C60.64978008 161.99720257 61.68943971 167.10140027 64 172 C66.20825949 173.60019461 66.20825949 173.60019461 69 174 C70.051875 174.37125 71.10375 174.7425 72.1875 175.125 C80.81296358 177.10461459 88.17678258 175.64397175 96.70703125 173.671875 C100.64180542 172.86905038 104.00778467 172.68688507 108 173 C109.82460793 174.82460793 109.17390559 177.60734879 109.1875 180.0625 C109.1621844 187.2647887 108.756131 194.44206257 108.25 201.625 C108.1883667 202.66793213 108.1267334 203.71086426 108.06323242 204.78540039 C107.323181 214.24007609 107.323181 214.24007609 103 218 C82.18304189 231.44131906 53.83509742 235.29053641 29.77807617 230.54882812 C20.17780298 228.34236714 10.4601445 224.15050358 4.328125 216.17578125 C-0.7367672 207.87829609 -2.18356368 199.61594723 -2.125 190 C-2.12306641 189.19022705 -2.12113281 188.3804541 -2.11914062 187.54614258 C-2.0685919 179.92100857 -1.78026974 172.3069949 -1.5 164.6875 C-1.14685477 154.56551544 -0.81986691 144.44279967 -0.71289062 134.31484985 C-0.68791648 132.34534447 -0.64295503 130.37612518 -0.59765625 128.40698242 C-0.58992188 127.21693604 -0.5821875 126.02688965 -0.57421875 124.80078125 C-0.55963623 123.75059814 -0.54505371 122.70041504 -0.5300293 121.6184082 C-0.76226709 118.88584445 -0.76226709 118.88584445 -2.84472656 117.16503906 C-5.65041112 115.64841846 -7.88765943 115.55945794 -11.0625 115.4375 C-16.6879526 115.2080316 -16.6879526 115.2080316 -20 113 C-20.38095093 111.10253906 -20.38095093 111.10253906 -20.38818359 108.765625 C-20.39764008 107.89131836 -20.40709656 107.01701172 -20.4168396 106.11621094 C-20.41076691 105.17036133 -20.40469421 104.22451172 -20.3984375 103.25 C-20.40130768 102.28094727 -20.40417786 101.31189453 -20.40713501 100.31347656 C-20.40917869 98.26236386 -20.40362767 96.2112318 -20.39111328 94.16015625 C-20.37506414 91.01257939 -20.39095194 87.86628671 -20.41015625 84.71875 C-20.40817387 82.72916382 -20.40433031 80.73957844 -20.3984375 78.75 C-20.40451019 77.80415039 -20.41058289 76.85830078 -20.4168396 75.88378906 C-20.40265488 74.5723291 -20.40265488 74.5723291 -20.38818359 73.234375 C-20.38579681 72.46319336 -20.38341003 71.69201172 -20.38095093 70.89746094 C-20 69 -20 69 -17 67 C-14.80384834 66.57681209 -12.59233972 66.23003152 -10.375 65.9375 C-6.36509915 65.72626521 -6.36509915 65.72626521 -3 64 C-1.81820649 57.95726393 -1.90319802 52.01719682 -1.97265625 45.87890625 C-1.98530073 43.70507971 -1.99766182 41.5312515 -2.00976562 39.35742188 C-2.03457022 35.95624515 -2.06257206 32.55515655 -2.09594727 29.15405273 C-2.1262668 25.85399841 -2.14395714 22.55405594 -2.16015625 19.25390625 C-2.17361588 18.24534073 -2.1870755 17.23677521 -2.20094299 16.19764709 C-2.22127884 10.43278199 -1.65995396 5.52758528 0 0 Z " fill="#010101" transform="translate(1091,163)"/>
<path d="M0 0 C2.42879264 0.29231432 3.65819663 0.62872219 5.33349609 2.44848633 C5.72617676 3.07005615 6.11885742 3.69162598 6.5234375 4.33203125 C7.20792969 5.39079468 7.20792969 5.39079468 7.90625 6.47094727 C8.3909375 7.24365967 8.875625 8.01637207 9.375 8.8125 C10.44310345 10.46497162 11.51350386 12.11596033 12.5859375 13.765625 C13.1437793 14.62736328 13.70162109 15.48910156 14.27636719 16.37695312 C17.09576896 20.66755547 20.04386446 24.86541658 23 29.0625 C23.58885986 29.89998779 24.17771973 30.73747559 24.78442383 31.6003418 C25.95808448 33.26788634 27.13263128 34.93480757 28.30810547 36.60107422 C29.9074604 38.86878873 31.50311769 41.1390536 33.09765625 43.41015625 C38.71892834 51.4070412 44.40869543 59.35134837 50.14257812 67.26782227 C56.34479611 75.84033234 62.43128367 84.49371115 68.51171875 93.15283203 C76.73626148 104.86329117 85.05252548 116.49276249 93.70703125 127.890625 C112.94609344 153.25536606 112.94609344 153.25536606 118 166 C96.10878442 174.4660646 71.33920697 180.15755493 48.78515625 170.23046875 C41.67062402 166.8851005 34.97700407 163.14648642 29 158 C28.36191406 157.49210938 27.72382812 156.98421875 27.06640625 156.4609375 C20.29398095 150.8898586 15.08794134 144.04984873 9.79296875 137.10546875 C8.75076172 135.75388672 8.75076172 135.75388672 7.6875 134.375 C6.76517578 133.14910156 6.76517578 133.14910156 5.82421875 131.8984375 C4.12732784 129.95132317 4.12732784 129.95132317 2.08203125 128.9140625 C-0.26822124 128.79944637 -0.26822124 128.79944637 -2.46484375 131.05859375 C-4.97858012 133.97514766 -7.28780644 136.95644636 -9.5625 140.0625 C-23.20552108 158.09851199 -39.44663342 170.32889898 -62.08203125 174.4609375 C-79.41629565 176.84591107 -99.21714424 173.89142788 -115 166 C-113.60526812 161.24193032 -111.56411034 157.15233226 -109 152.9375 C-108.60119629 152.27903076 -108.20239258 151.62056152 -107.79150391 150.94213867 C-104.08835823 144.94564137 -99.86274244 139.41539795 -95.48974609 133.89794922 C-86.76255726 122.77943627 -78.46924175 111.37354648 -70.56542969 99.65820312 C-66.74757689 94.02221289 -62.71576355 88.6437201 -58.515625 83.28515625 C-55.07455973 78.84749085 -51.88270783 74.23383768 -48.6628418 69.63476562 C-45.0743354 64.5114127 -41.42801229 59.43438297 -37.75 54.375 C-26.57128256 38.95060094 -15.75417929 23.2779782 -5.25219727 7.38549805 C-4.70619873 6.55961182 -4.1602002 5.73372559 -3.59765625 4.8828125 C-3.11820557 4.15465332 -2.63875488 3.42649414 -2.14477539 2.67626953 C-1 1 -1 1 0 0 Z " fill="#010101" transform="translate(885,155)"/>
<path d="M0 0 C5.64907657 0.54787899 10.12370113 2.14771095 15.3125 4.375 C38.05316226 13.63194799 60.60778556 11.63145903 84 6 C77.14697702 24.21981592 62.87503094 39.85817901 51 55 C25.48091673 84.04729835 25.48091673 84.04729835 15 119 C16.47068013 125.18380464 19.39224509 130.37617825 24.6328125 134.1875 C28.58315018 136.59667455 32.52024584 137.90291735 37 139 C34.58198405 145.8510452 31.39895492 150.41658524 25 154 C20.67763815 155.69710402 17.10250105 156.24811577 12.47000122 156.24050903 C11.17438766 156.24325836 9.87877411 156.24600769 8.54389954 156.24884033 C7.12057401 156.24176338 5.69724944 156.23449378 4.27392578 156.22705078 C2.76567085 156.22648625 1.25741538 156.22680404 -0.25083923 156.22793579 C-4.33511283 156.22850868 -8.41926852 156.21676473 -12.50351477 156.20278788 C-16.77562198 156.19026987 -21.04773201 156.18910917 -25.31985474 156.18673706 C-33.40514627 156.18052544 -41.4903836 156.16411892 -49.57565129 156.14403808 C-58.7823791 156.12166919 -67.98910953 156.11068316 -77.19585776 156.10064721 C-96.13060255 156.07975242 -115.06529691 156.04458261 -134 156 C-132.69248367 152.62134994 -131.37211531 149.83687072 -129.1875 146.9375 C-128.70667969 146.28652344 -128.22585938 145.63554687 -127.73046875 144.96484375 C-123.68658273 140.37325308 -120.48016063 138.5736771 -114.4375 137.625 C-90.37518052 132.97917966 -78.08453633 112.34953705 -65.24316406 93.40869141 C-62.87133731 89.86537367 -60.51558108 86.31162287 -58.16357422 82.75512695 C-47.53858738 66.71136731 -36.1600009 51.17698953 -24.81640625 35.63671875 C-16.28927824 23.92920951 -8.10428571 12.00346968 0 0 Z " fill="#000000" transform="translate(758,335)"/>
<path d="M0 0 C3.94765512 3.54824531 6.57907496 7.70610582 9.4375 12.125 C15.17046378 20.85419682 21.20345706 29.32743825 27.36328125 37.75878906 C38.74390922 53.34264419 49.9674935 69.03545139 60.7578125 85.03515625 C61.17040314 85.64625244 61.58299377 86.25734863 62.00808716 86.88696289 C64.03701081 89.89312653 66.06115902 92.90230103 68.07666016 95.91748047 C85.34562231 122.5432484 85.34562231 122.5432484 112 138 C113.7056584 138.32678502 115.41420855 138.63874985 117.125 138.9375 C125.41544817 140.54496094 128.97879787 144.9026503 133.58203125 151.66015625 C135 154 135 154 136 157 C116.18946736 157.07013232 96.37895997 157.12300887 76.56832886 157.15543652 C67.3695663 157.17089454 58.17088096 157.19196369 48.97216797 157.22631836 C40.95302814 157.25625332 32.93394425 157.27558274 24.9147501 157.28226548 C20.67003517 157.2861708 16.42548022 157.29532662 12.18081665 157.31719017 C8.18191254 157.33762011 4.18323365 157.34382071 0.1842823 157.33932304 C-1.27979699 157.34014534 -2.74388416 157.34607223 -4.20791817 157.35761642 C-14.65241363 157.43590268 -22.56439328 156.90779862 -30.5234375 149.62109375 C-33.04855255 146.84881135 -35 143.81588869 -35 140 C-34.34773437 139.75765625 -33.69546875 139.5153125 -33.0234375 139.265625 C-25.14772798 136.24544141 -18.83578967 133.60008177 -14.9375 125.7265625 C-12.49805025 118.63182948 -12.63002078 111.77511424 -15.63671875 104.8828125 C-23.76870694 88.24239075 -35.69753854 73.5493768 -47 59 C-49.91132044 55.23499986 -52.81419641 51.46353637 -55.70800781 47.68505859 C-56.6092837 46.50958501 -57.5124261 45.33554121 -58.41699219 44.16259766 C-64.25396425 36.58069031 -69.85605127 28.90645679 -75.0625 20.875 C-75.5155249 20.17665039 -75.9685498 19.47830078 -76.43530273 18.75878906 C-78.87310383 14.94004508 -81.05237162 11.0995981 -83 7 C-81.09927734 7.41572266 -81.09927734 7.41572266 -79.16015625 7.83984375 C-77.46098785 8.20596291 -75.76176622 8.57183512 -74.0625 8.9375 C-73.23169922 9.11990234 -72.40089844 9.30230469 -71.54492188 9.49023438 C-45.83884314 14.99153527 -24.01817596 9.51816417 0 0 Z " fill="#010101" transform="translate(1013,334)"/>
<path d="M0 0 C1.77310547 -0.13341797 1.77310547 -0.13341797 3.58203125 -0.26953125 C12.69383257 2.46499634 17.64881547 14.53039134 22 22.375 C22.83821289 23.83969727 22.83821289 23.83969727 23.69335938 25.33398438 C26.9008535 31.04936425 29.33771039 36.52321532 31.1875 42.8125 C29.56640625 44.83984375 29.56640625 44.83984375 27.1875 46.8125 C24.33984375 46.87890625 24.33984375 46.87890625 21.125 46.375 C12.48836006 45.43475974 4.48586068 46.8187291 -2.44140625 52.3671875 C-5.68515137 55.78651996 -6.60675918 59.60091519 -7.375 64.125 C-6.00473704 73.10783495 0.15556722 78.98352919 6.4609375 85.05078125 C18.24100929 96.98274508 26.84597245 110.22456643 27.5625 127.375 C27.30526158 140.78569623 23.06165114 153.67061298 14.1875 163.8125 C12.01095112 165.71814334 9.71807518 167.43015747 7.375 169.125 C6.71483887 169.60283936 6.05467773 170.08067871 5.37451172 170.57299805 C-8.69077032 180.538826 -25.51064091 188.77698717 -42.8125 190.8125 C-43.71355469 190.96460938 -44.61460937 191.11671875 -45.54296875 191.2734375 C-49.66193835 191.69385647 -52.54685612 191.65847139 -56.05078125 189.31640625 C-64.93884633 180.2008587 -78.98233529 161.77447658 -80.0625 148.8125 C-79.98 148.1525 -79.8975 147.4925 -79.8125 146.8125 C-73.80729549 145.20883743 -67.83328189 143.78552201 -61.69995117 142.78271484 C-53.99886161 141.50146521 -46.41391585 140.07178572 -41.14453125 133.83984375 C-38.52758581 129.85686815 -38.3683937 126.47561616 -38.8125 121.8125 C-41.73347496 112.78403193 -48.39024169 106.46610767 -54.8125 99.8125 C-64.98386735 88.99314979 -72.77099939 77.03810266 -73.25 61.75 C-72.63635402 46.24521146 -66.47137614 35.64697542 -55.8125 24.8125 C-55.12285156 24.10996094 -54.43320312 23.40742188 -53.72265625 22.68359375 C-39.46893526 9.11999705 -19.42633066 1.38759505 0 0 Z " fill="#010101" transform="translate(535.8125,207.1875)"/>
<path d="M0 0 C1.93875137 2.38304856 3.34410607 4.81188443 4.8125 7.51171875 C5.90349165 9.24129084 6.99457313 10.97080714 8.08740234 12.69921875 C10.08433155 15.91980175 11.94927988 19.2125436 13.8125 22.51171875 C14.21807129 23.21941406 14.62364258 23.92710937 15.04150391 24.65625 C16.24490186 26.78073784 17.40883142 28.92239021 18.5625 31.07421875 C18.93431396 31.72849854 19.30612793 32.38277832 19.68920898 33.05688477 C20.671875 34.953125 20.671875 34.953125 21.8125 38.51171875 C20.515625 41.9765625 20.515625 41.9765625 18.8125 44.51171875 C17.92949219 44.40472656 17.04648438 44.29773438 16.13671875 44.1875 C5.97769052 43.17268837 -3.52184752 43.42280286 -11.81640625 50.06640625 C-15.06015137 53.48573871 -15.98175918 57.30013394 -16.75 61.82421875 C-15.43478155 70.44620636 -9.64837308 76.34101015 -3.5546875 82.16796875 C8.65076461 94.2525748 17.34779002 107.97721514 18.125 125.38671875 C17.98001054 138.65325476 13.5651712 151.50866595 4.8125 161.51171875 C2.63595112 163.41736209 0.34307518 165.12937622 -2 166.82421875 C-2.66016113 167.30205811 -3.32032227 167.77989746 -4.00048828 168.2722168 C-18.06577032 178.23804475 -34.88564091 186.47620592 -52.1875 188.51171875 C-53.08855469 188.66382813 -53.98960938 188.8159375 -54.91796875 188.97265625 C-59.03693835 189.39307522 -61.92185612 189.35769014 -65.42578125 187.015625 C-74.31384633 177.90007745 -88.35733529 159.47369533 -89.4375 146.51171875 C-89.355 145.85171875 -89.2725 145.19171875 -89.1875 144.51171875 C-83.18229549 142.90805618 -77.20828189 141.48474076 -71.07495117 140.48193359 C-63.37386161 139.20068396 -55.78891585 137.77100447 -50.51953125 131.5390625 C-47.90258581 127.5560869 -47.7433937 124.17483491 -48.1875 119.51171875 C-51.10847496 110.48325068 -57.76524169 104.16532642 -64.1875 97.51171875 C-74.35886735 86.69236854 -82.14599939 74.73732141 -82.625 59.44921875 C-82.01135402 43.94443021 -75.84637614 33.34619417 -65.1875 22.51171875 C-64.49785156 21.80917969 -63.80820313 21.10664063 -63.09765625 20.3828125 C-50.85349739 8.7314807 -16.47630179 -11.20976961 0 0 Z " fill="#010101" transform="translate(2015.1875,209.48828125)"/>
<path d="M0 0 C6.36441036 6.02120445 10.53630173 14.55552305 14.875 22.0625 C15.55046875 23.19494141 16.2259375 24.32738281 16.921875 25.49414062 C23.25870745 36.41817809 23.25870745 36.41817809 23 43 C21.9453125 45.02734375 21.9453125 45.02734375 20 46 C17.1796875 46.00390625 17.1796875 46.00390625 13.875 45.5625 C4.65179069 44.6626747 -1.53079425 45.8887414 -9.11328125 51.3671875 C-13.0070077 54.7369135 -13.84553716 57.82222081 -14.5 62.8125 C-14.12740295 70.96306037 -8.64868869 76.70346966 -3.03515625 82.0546875 C9.96435448 94.48032347 18.84592139 108.68942525 20.3125 126.875 C20.1420724 139.4653393 15.64247892 153.31518939 7.0625 162.5625 C-8.96259488 177.58272095 -33.33315493 189.23685702 -55.375 190.5 C-56.26960937 190.5721875 -57.16421875 190.644375 -58.0859375 190.71875 C-65.3471164 188.92778899 -69.6975658 180.94082296 -73.4375 174.9375 C-74.13528564 173.83583496 -74.13528564 173.83583496 -74.84716797 172.71191406 C-87.16088797 153.12324998 -87.16088797 153.12324998 -88 147 C-84.90013026 144.93342017 -83.19569991 144.50945296 -79.58984375 143.88671875 C-78.51669922 143.69013672 -77.44355469 143.49355469 -76.33789062 143.29101562 C-74.09947873 142.89373287 -71.85990504 142.50293253 -69.61914062 142.11914062 C-62.06563097 140.7200093 -53.48120235 139.08543471 -48.26708984 132.96630859 C-46.03069126 129.4957972 -45.80949307 126.06633755 -46 122 C-48.17893495 112.77638816 -55.61377012 105.47287228 -62.0078125 98.8671875 C-73.73315446 86.71664083 -80.60782516 74.91822005 -80.3125 57.66015625 C-79.06381725 43.03495955 -71.43755492 30.31080069 -60.484375 20.8203125 C-45.84740705 9.26270666 -19.44802509 -6.22152462 0 0 Z " fill="#010101" transform="translate(672,208)"/>
<path d="M0 0 C0.99 0 1.98 0 3 0 C4.49536133 1.70214844 4.49536133 1.70214844 6.08203125 4.109375 C6.97450562 5.44379639 6.97450562 5.44379639 7.88500977 6.80517578 C8.52108154 7.77696777 9.15715332 8.74875977 9.8125 9.75 C11.17072483 11.78462244 12.53012478 13.81846085 13.890625 15.8515625 C14.92219727 17.40085449 14.92219727 17.40085449 15.97460938 18.98144531 C18.94319035 23.40569016 21.99597622 27.76831633 25.0625 32.125 C25.64104736 32.95008057 26.21959473 33.77516113 26.81567383 34.62524414 C29.60543333 38.602334 32.40453622 42.57256253 35.21484375 46.53515625 C42.94663655 57.46758935 50.43954728 68.5523349 57.875 79.6875 C58.37765381 80.43889252 58.88030762 81.19028503 59.39819336 81.96444702 C60.82805868 84.10341897 62.25450389 86.24462537 63.6796875 88.38671875 C64.1164682 89.03991089 64.5532489 89.69310303 65.00326538 90.36608887 C68 94.88471418 68 94.88471418 68 96 C24.11 96 -19.78 96 -65 96 C-62.74981696 90.3745424 -62.74981696 90.3745424 -60.85205078 87.58105469 C-60.43001877 86.95498322 -60.00798676 86.32891174 -59.57316589 85.68386841 C-59.11847427 85.01991058 -58.66378265 84.35595276 -58.1953125 83.671875 C-57.72003616 82.97013153 -57.24475983 82.26838806 -56.75508118 81.54537964 C-55.21657575 79.27691038 -53.67106653 77.01332128 -52.125 74.75 C-51.06366021 73.18944217 -50.00254406 71.62873223 -48.94165039 70.06787109 C-42.52398257 60.6383061 -36.04224813 51.2591643 -29.40869141 41.97998047 C-26.6238506 38.06575882 -23.87790582 34.1242081 -21.125 30.1875 C-20.5470166 29.36427246 -19.9690332 28.54104492 -19.37353516 27.69287109 C-16.2528854 23.24432211 -13.16160705 18.77831196 -10.10546875 14.28515625 C-9.47044434 13.35872314 -8.83541992 12.43229004 -8.18115234 11.4777832 C-6.95575155 9.68899262 -5.73832218 7.89470938 -4.52978516 6.09448242 C-3.97983887 5.29502197 -3.42989258 4.49556152 -2.86328125 3.671875 C-2.14072144 2.60598145 -2.14072144 2.60598145 -1.40356445 1.51855469 C-0.94038818 1.01743164 -0.47721191 0.51630859 0 0 Z " fill="#000000" transform="translate(885,309)"/>
</svg>
